<svg xmlns="http://www.w3.org/2000/svg" viewBox="-20.0 -86.8 490.0 186.8" width="800" height="800">
  <circle id="bell_position" cx="450.000000" cy="0.000000" r="2" fill="black"/>
  <circle id="horizontal_ref_end" cx="100.000000" cy="0.000000" r="2" fill="black"/>
  <circle id="domino2_base" cx="311.625157" cy="-19.978007" r="2" fill="black"/>
  <circle id="domino2_top" cx="310.001192" cy="9.978007" r="2" fill="black"/>
  <circle id="catcher_left" cx="145.370807" cy="-66.759820" r="2" fill="black"/>
  <circle id="origin" cx="0.000000" cy="0.000000" r="2" fill="black"/>
  <circle id="domino3_top" cx="330.001192" cy="9.978008" r="2" fill="black"/>
  <circle id="catcher_center" cx="167.552340" cy="-63.932917" r="2" fill="black"/>
  <line id="ramp" x1="0.000000" y1="80.000000" x2="129.390813" y2="4.118399" stroke="black"/>
  <circle id="lever_left" cx="166.625167" cy="-20.000000" r="2" fill="black"/>
  <line id="catcher" x1="145.370807" y1="-66.759820" x2="185.049872" y2="-61.702962" stroke="black"/>
  <circle id="pulley_center" cx="380.000000" cy="20.000000" r="2" fill="black"/>
  <circle id="domino1_base" cx="291.625157" cy="-19.978007" r="2" fill="black"/>
  <circle id="weight_top" cx="380.247769" cy="0.082290" r="2" fill="black"/>
  <circle id="lever_pivot" cx="200.000000" cy="-20.000000" r="2" fill="black"/>
  <circle id="domino3_base" cx="331.625157" cy="-19.978006" r="2" fill="black"/>
  <circle id="domino4_top" cx="350.001198" cy="9.895414" r="2" fill="black"/>
  <circle id="catcher_right" cx="185.049872" cy="-61.702962" r="2" fill="black"/>
  <line id="horizontal_ref" x1="0.000000" y1="0.000000" x2="100.000000" y2="0.000000" stroke="black"/>
  <circle id="ramp_end" cx="129.390813" cy="4.118399" r="2" fill="black"/>
  <circle id="ramp_start" cx="0.000000" cy="80.000000" r="2" fill="black"/>
  <circle id="domino1_top" cx="290.001192" cy="9.978007" r="2" fill="black"/>
  <line id="domino2" x1="311.625157" y1="-19.978007" x2="310.001192" y2="9.978007" stroke="black"/>
  <circle id="lever_right" cx="266.625167" cy="-20.000000" r="2" fill="black"/>
  <line id="weight_string" x1="380.247769" y1="0.082290" x2="380.000002" y2="-49.917097" stroke="black"/>
  <line id="domino1" x1="291.625157" y1="-19.978007" x2="290.001192" y2="9.978007" stroke="black"/>
  <circle id="marble_exit" cx="153.740302" cy="9.784297" r="2" fill="black"/>
  <line id="domino3" x1="331.625157" y1="-19.978006" x2="330.001192" y2="9.978008" stroke="black"/>
  <circle id="weight_bottom" cx="380.000002" cy="-49.917097" r="2" fill="black"/>
  <line id="domino4" x1="351.624987" y1="-20.060609" x2="350.001198" y2="9.895414" stroke="black"/>
  <circle id="domino4_base" cx="351.624987" cy="-20.060609" r="2" fill="black"/>
  <line id="lever" x1="166.625167" y1="-20.000000" x2="266.625167" y2="-20.000000" stroke="black"/>
</svg>