<svg xmlns="http://www.w3.org/2000/svg" viewBox="-20.0 -20.0 539.9 1240.0" width="800" height="800">
  <circle id="origin" cx="0.000000" cy="0.000000" r="2" fill="black"/>
  <circle id="lever_right" cx="499.869316" cy="792.566061" r="2" fill="black"/>
  <circle id="next_trigger" cx="479.966690" cy="793.553287" r="2" fill="black"/>
  <line id="horizontal_ref" x1="0.000000" y1="1000.000000" x2="100.000000" y2="1000.000000" stroke="black"/>
  <circle id="lever_left" cx="300.114906" cy="802.474441" r="2" fill="black"/>
  <circle id="ramp_start" cx="0.000000" cy="1200.000000" r="2" fill="black"/>
  <circle id="horizontal_ref_end" cx="100.000000" cy="1000.000000" r="2" fill="black"/>
  <circle id="lever_pivot" cx="350.000000" cy="800.000000" r="2" fill="black"/>
  <circle id="catcher_center" cx="313.813040" cy="849.852297" r="2" fill="black"/>
  <line id="catcher" x1="318.411076" y1="849.704591" x2="378.380142" y2="847.778170" stroke="black"/>
  <circle id="catcher_right" cx="378.380142" cy="847.778170" r="2" fill="black"/>
  <circle id="lever_marble_target" cx="325.423708" cy="801.219053" r="2" fill="black"/>
  <circle id="table_top" cx="0.000000" cy="1000.000000" r="2" fill="black"/>
  <line id="ramp" x1="0.000000" y1="1200.000000" x2="243.369842" y2="1024.583011" stroke="black"/>
  <circle id="catcher_left" cx="318.411076" cy="849.704591" r="2" fill="black"/>
  <line id="lever" x1="300.114906" y1="802.474441" x2="499.869316" y2="792.566061" stroke="black"/>
  <circle id="ramp_end" cx="243.369842" cy="1024.583011" r="2" fill="black"/>
  <circle id="marble_exit" cx="267.126207" cy="992.401725" r="2" fill="black"/>
</svg>