<svg xmlns="http://www.w3.org/2000/svg" viewBox="-20.0 -20.0 260.0 170.0" width="800" height="800">
  <circle id="angle_center" cx="150.000000" cy="0.000000" r="2" fill="black"/>
  <line id="angle_line1" x1="150.000000" y1="0.000000" x2="200.000000" y2="0.000000" stroke="black"/>
  <line id="angle_line2" x1="150.000000" y1="0.000000" x2="185.355339" y2="35.355339" stroke="black"/>
  <circle id="angle_p1" cx="200.000000" cy="0.000000" r="2" fill="black"/>
  <circle id="angle_p2" cx="185.355339" cy="35.355339" r="2" fill="black"/>
  <circle id="box_a" cx="80.000000" cy="0.000000" r="2" fill="black"/>
  <line id="box_ab" x1="80.000000" y1="0.000000" x2="120.000000" y2="0.000000" stroke="black"/>
  <circle id="box_b" cx="120.000000" cy="0.000000" r="2" fill="black"/>
  <line id="box_bc" x1="120.000000" y1="0.000000" x2="120.000000" y2="40.000000" stroke="black"/>
  <circle id="box_c" cx="120.000000" cy="40.000000" r="2" fill="black"/>
  <line id="box_cd" x1="120.000000" y1="40.000000" x2="80.000000" y2="40.000000" stroke="black"/>
  <circle id="box_d" cx="80.000000" cy="40.000000" r="2" fill="black"/>
  <line id="box_da" x1="80.000000" y1="40.000000" x2="80.000000" y2="0.000000" stroke="black"/>
  <circle id="circle1" cx="150.000000" cy="100.000000" r="20.000000" fill="none" stroke="black"/>
  <circle id="circle2" cx="200.000000" cy="100.000000" r="20.000000" fill="none" stroke="black"/>
  <line id="horizontal_line" x1="0.000000" y1="0.000000" x2="50.000000" y2="0.000000" stroke="black"/>
  <circle id="line1_end" cx="50.000000" cy="80.000000" r="2" fill="black"/>
  <circle id="line1_start" cx="0.000000" cy="80.000000" r="2" fill="black"/>
  <circle id="line2_end" cx="60.000000" cy="100.000000" r="2" fill="black"/>
  <circle id="line2_start" cx="0.000000" cy="100.000000" r="2" fill="black"/>
  <circle id="midpoint_a" cx="80.000000" cy="80.000000" r="2" fill="black"/>
  <circle id="midpoint_b" cx="140.000000" cy="80.000000" r="2" fill="black"/>
  <line id="midpoint_line" x1="80.000000" y1="80.000000" x2="140.000000" y2="80.000000" stroke="black"/>
  <circle id="midpoint_m" cx="110.000000" cy="80.000000" r="2" fill="black"/>
  <circle id="origin" cx="0.000000" cy="0.000000" r="2" fill="black"/>
  <circle id="p_horizontal" cx="50.000000" cy="0.000000" r="2" fill="black"/>
  <circle id="p_vertical" cx="0.000000" cy="50.000000" r="2" fill="black"/>
  <line id="parallel_line1" x1="0.000000" y1="80.000000" x2="50.000000" y2="80.000000" stroke="black"/>
  <line id="parallel_line2" x1="0.000000" y1="100.000000" x2="60.000000" y2="100.000000" stroke="black"/>
  <circle id="slider_end" cx="100.000000" cy="130.000000" r="2" fill="black"/>
  <circle id="slider_origin" cx="0.000000" cy="130.000000" r="2" fill="black"/>
  <circle id="slider_point" cx="40.000000" cy="130.000000" r="2" fill="black"/>
  <line id="slider_rail" x1="0.000000" y1="130.000000" x2="100.000000" y2="130.000000" stroke="black"/>
  <line id="vertical_line" x1="0.000000" y1="0.000000" x2="0.000000" y2="50.000000" stroke="black"/>
</svg>