<svg xmlns="http://www.w3.org/2000/svg" viewBox="-30.0 -63.5 163.5 127.0" width="800" height="800">
  <line id="driver_arm" x1="0.000000" y1="0.000000" x2="34.641016" y2="-20.000000" stroke="black"/>
  <circle id="driver_center" cx="0.000000" cy="0.000000" r="2" fill="black"/>
  <circle id="driver_hub" cx="0.000000" cy="0.000000" r="10.000000" fill="none" stroke="black"/>
  <circle id="driver_pin" cx="34.641016" cy="-20.000000" r="2" fill="black"/>
  <circle id="driver_ref" cx="40.000000" cy="0.000000" r="2" fill="black"/>
  <line id="driver_ref_line" x1="0.000000" y1="0.000000" x2="40.000000" y2="0.000000" stroke="black"/>
  <circle id="geneva_center" cx="70.000000" cy="0.000000" r="2" fill="black"/>
  <circle id="geneva_hub" cx="70.000000" cy="0.000000" r="10.000000" fill="none" stroke="black"/>
  <line id="ground" x1="0.000000" y1="0.000000" x2="70.000000" y2="0.000000" stroke="black"/>
  <line id="slot1" x1="70.000000" y1="0.000000" x2="113.520501" y2="24.616376" stroke="black"/>
  <circle id="slot1_end" cx="113.520501" cy="24.616376" r="2" fill="black"/>
  <line id="slot2" x1="70.000000" y1="0.000000" x2="94.616376" y2="-43.520501" stroke="black"/>
  <circle id="slot2_end" cx="94.616376" cy="-43.520501" r="2" fill="black"/>
  <line id="slot3" x1="70.000000" y1="0.000000" x2="26.479499" y2="-24.616376" stroke="black"/>
  <circle id="slot3_end" cx="26.479499" cy="-24.616376" r="2" fill="black"/>
  <line id="slot4" x1="70.000000" y1="0.000000" x2="45.383624" y2="43.520501" stroke="black"/>
  <circle id="slot4_end" cx="45.383624" cy="43.520501" r="2" fill="black"/>
</svg>