<svg xmlns="http://www.w3.org/2000/svg" viewBox="-55.4 -55.4 110.7 110.7" width="800" height="800">
  <circle id="back" cx="0.000000" cy="-35.360000" r="2" fill="black"/>
  <circle id="bottom" cx="0.000000" cy="0.000000" r="2" fill="black"/>
  <line id="e1" x1="0.000000" y1="0.000000" x2="0.000000" y2="35.360000" stroke="black"/>
  <line id="e10" x1="0.000000" y1="35.360000" x2="35.360000" y2="0.000000" stroke="black"/>
  <line id="e11" x1="0.000000" y1="-35.360000" x2="-35.360000" y2="0.000000" stroke="black"/>
  <line id="e12" x1="0.000000" y1="-35.360000" x2="35.360000" y2="0.000000" stroke="black"/>
  <line id="e2" x1="0.000000" y1="0.000000" x2="0.000000" y2="-35.360000" stroke="black"/>
  <line id="e3" x1="0.000000" y1="0.000000" x2="-35.360000" y2="0.000000" stroke="black"/>
  <line id="e4" x1="0.000000" y1="0.000000" x2="35.360000" y2="0.000000" stroke="black"/>
  <line id="e5" x1="0.000000" y1="0.000000" x2="0.000000" y2="35.360000" stroke="black"/>
  <line id="e6" x1="0.000000" y1="0.000000" x2="0.000000" y2="-35.360000" stroke="black"/>
  <line id="e7" x1="0.000000" y1="0.000000" x2="-35.360000" y2="0.000000" stroke="black"/>
  <line id="e8" x1="0.000000" y1="0.000000" x2="35.360000" y2="0.000000" stroke="black"/>
  <line id="e9" x1="0.000000" y1="35.360000" x2="-35.360000" y2="0.000000" stroke="black"/>
  <circle id="front" cx="0.000000" cy="35.360000" r="2" fill="black"/>
  <circle id="left" cx="-35.360000" cy="0.000000" r="2" fill="black"/>
  <circle id="right" cx="35.360000" cy="0.000000" r="2" fill="black"/>
  <circle id="top" cx="0.000000" cy="0.000000" r="2" fill="black"/>
</svg>