<svg xmlns="http://www.w3.org/2000/svg" viewBox="-120.0 -120.0 240.0 240.0" width="800" height="800">
  <circle id="mid5" cx="-92.400000" cy="-38.300000" r="2" fill="black"/>
  <circle id="mid4" cx="-92.400000" cy="38.300000" r="2" fill="black"/>
  <line id="star12" x1="-70.710678" y1="70.710678" x2="26.870058" y2="-26.870058" stroke="black"/>
  <line id="star4" x1="-70.710678" y1="70.710678" x2="-26.870058" y2="-26.870058" stroke="black"/>
  <line id="star14" x1="-70.710678" y1="-70.710678" x2="26.870058" y2="26.870058" stroke="black"/>
  <circle id="inner6" cx="-26.870058" cy="-26.870058" r="2" fill="black"/>
  <line id="star6" x1="-70.710678" y1="-70.710678" x2="26.870058" y2="-26.870058" stroke="black"/>
  <line id="cross4" x1="-92.400000" y1="38.300000" x2="92.400000" y2="-38.300000" stroke="black"/>
  <line id="center_web3" x1="0.000000" y1="15.000000" x2="-10.606602" y2="10.606602" stroke="black"/>
  <circle id="center_star7" cx="0.000000" cy="-15.000000" r="2" fill="black"/>
  <circle id="inner4" cx="-26.870058" cy="26.870058" r="2" fill="black"/>
  <line id="star10" x1="70.710678" y1="70.710678" x2="-26.870058" y2="-26.870058" stroke="black"/>
  <circle id="inner3" cx="0.000000" cy="38.000000" r="2" fill="black"/>
  <line id="cross3" x1="-38.300000" y1="92.400000" x2="38.300000" y2="-92.400000" stroke="black"/>
  <circle id="mid3" cx="-38.300000" cy="92.400000" r="2" fill="black"/>
  <circle id="inner2" cx="26.870058" cy="26.870058" r="2" fill="black"/>
  <line id="center_web2" x1="10.606602" y1="10.606602" x2="0.000000" y2="15.000000" stroke="black"/>
  <line id="star1" x1="100.000000" y1="0.000000" x2="0.000000" y2="38.000000" stroke="black"/>
  <circle id="inner1" cx="38.000000" cy="0.000000" r="2" fill="black"/>
  <line id="star3" x1="0.000000" y1="100.000000" x2="-38.000000" y2="0.000000" stroke="black"/>
  <circle id="mid7" cx="38.300000" cy="-92.400000" r="2" fill="black"/>
  <line id="star13" x1="-100.000000" y1="0.000000" x2="38.000000" y2="0.000000" stroke="black"/>
  <circle id="outer8" cx="70.710678" cy="-70.710678" r="2" fill="black"/>
  <line id="center_web7" x1="0.000000" y1="-15.000000" x2="10.606602" y2="-10.606602" stroke="black"/>
  <line id="star5" x1="-100.000000" y1="0.000000" x2="0.000000" y2="-38.000000" stroke="black"/>
  <line id="star9" x1="100.000000" y1="0.000000" x2="-38.000000" y2="0.000000" stroke="black"/>
  <circle id="center" cx="0.000000" cy="0.000000" r="2" fill="black"/>
  <line id="star8" x1="70.710678" y1="-70.710678" x2="26.870058" y2="26.870058" stroke="black"/>
  <circle id="center_star2" cx="10.606602" cy="10.606602" r="2" fill="black"/>
  <circle id="center_star3" cx="0.000000" cy="15.000000" r="2" fill="black"/>
  <line id="web4" x1="-92.400000" y1="38.300000" x2="-92.400000" y2="-38.300000" stroke="black"/>
  <line id="web5" x1="-92.400000" y1="-38.300000" x2="-38.300000" y2="-92.400000" stroke="black"/>
  <circle id="mid2" cx="38.300000" cy="92.400000" r="2" fill="black"/>
  <line id="cross2" x1="38.300000" y1="92.400000" x2="-38.300000" y2="-92.400000" stroke="black"/>
  <circle id="mid8" cx="92.400000" cy="-38.300000" r="2" fill="black"/>
  <line id="star7" x1="0.000000" y1="-100.000000" x2="38.000000" y2="0.000000" stroke="black"/>
  <line id="center_web1" x1="15.000000" y1="0.000000" x2="10.606602" y2="10.606602" stroke="black"/>
  <circle id="outer7" cx="0.000000" cy="-100.000000" r="2" fill="black"/>
  <line id="center_web5" x1="-15.000000" y1="0.000000" x2="-10.606602" y2="-10.606602" stroke="black"/>
  <line id="web3" x1="-38.300000" y1="92.400000" x2="-92.400000" y2="38.300000" stroke="black"/>
  <circle id="outer1" cx="100.000000" cy="0.000000" r="2" fill="black"/>
  <circle id="center_star1" cx="15.000000" cy="0.000000" r="2" fill="black"/>
  <circle id="center_star8" cx="10.606602" cy="-10.606602" r="2" fill="black"/>
  <line id="web1" x1="92.400000" y1="38.300000" x2="38.300000" y2="92.400000" stroke="black"/>
  <line id="web7" x1="38.300000" y1="-92.400000" x2="92.400000" y2="-38.300000" stroke="black"/>
  <line id="star2" x1="70.710678" y1="70.710678" x2="-26.870058" y2="26.870058" stroke="black"/>
  <circle id="outer2" cx="70.710678" cy="70.710678" r="2" fill="black"/>
  <line id="web6" x1="-38.300000" y1="-92.400000" x2="38.300000" y2="-92.400000" stroke="black"/>
  <line id="web8" x1="92.400000" y1="-38.300000" x2="92.400000" y2="38.300000" stroke="black"/>
  <circle id="outer4" cx="-70.710678" cy="70.710678" r="2" fill="black"/>
  <circle id="mid6" cx="-38.300000" cy="-92.400000" r="2" fill="black"/>
  <circle id="mid1" cx="92.400000" cy="38.300000" r="2" fill="black"/>
  <line id="web2" x1="38.300000" y1="92.400000" x2="-38.300000" y2="92.400000" stroke="black"/>
  <line id="cross1" x1="92.400000" y1="38.300000" x2="-92.400000" y2="-38.300000" stroke="black"/>
  <line id="star11" x1="0.000000" y1="100.000000" x2="0.000000" y2="-38.000000" stroke="black"/>
  <line id="star15" x1="0.000000" y1="-100.000000" x2="0.000000" y2="38.000000" stroke="black"/>
  <circle id="center_star4" cx="-10.606602" cy="10.606602" r="2" fill="black"/>
  <line id="center_web8" x1="10.606602" y1="-10.606602" x2="15.000000" y2="0.000000" stroke="black"/>
  <line id="center_web6" x1="-10.606602" y1="-10.606602" x2="0.000000" y2="-15.000000" stroke="black"/>
  <circle id="inner7" cx="0.000000" cy="-38.000000" r="2" fill="black"/>
  <line id="center_web4" x1="-10.606602" y1="10.606602" x2="-15.000000" y2="0.000000" stroke="black"/>
  <line id="star16" x1="70.710678" y1="-70.710678" x2="-26.870058" y2="26.870058" stroke="black"/>
  <circle id="outer3" cx="0.000000" cy="100.000000" r="2" fill="black"/>
  <circle id="center_star6" cx="-10.606602" cy="-10.606602" r="2" fill="black"/>
  <circle id="inner5" cx="-38.000000" cy="0.000000" r="2" fill="black"/>
  <circle id="outer6" cx="-70.710678" cy="-70.710678" r="2" fill="black"/>
  <circle id="center_star5" cx="-15.000000" cy="0.000000" r="2" fill="black"/>
  <circle id="outer5" cx="-100.000000" cy="0.000000" r="2" fill="black"/>
  <circle id="inner8" cx="26.870058" cy="-26.870058" r="2" fill="black"/>
</svg>