<svg xmlns="http://www.w3.org/2000/svg" viewBox="-120.0 -120.0 240.0 240.0" width="800" height="800">
  <circle id="center" cx="0.000000" cy="0.000000" r="2" fill="black"/>
  <circle id="inner1" cx="38.000000" cy="0.000001" r="2" fill="black"/>
  <circle id="inner2" cx="26.870058" cy="26.870057" r="2" fill="black"/>
  <circle id="inner3" cx="0.000001" cy="38.000000" r="2" fill="black"/>
  <circle id="inner4" cx="-26.870057" cy="26.870058" r="2" fill="black"/>
  <circle id="inner5" cx="-38.000000" cy="0.000001" r="2" fill="black"/>
  <circle id="inner6" cx="-26.870058" cy="-26.870057" r="2" fill="black"/>
  <circle id="inner7" cx="0.000001" cy="-38.000000" r="2" fill="black"/>
  <circle id="inner8" cx="26.870057" cy="-26.870058" r="2" fill="black"/>
  <circle id="inner_circle" cx="0.000000" cy="0.000000" r="38.000000" fill="none" stroke="black"/>
  <circle id="outer1" cx="100.000000" cy="0.000000" r="2" fill="black"/>
  <circle id="outer2" cx="70.710678" cy="70.710678" r="2" fill="black"/>
  <circle id="outer3" cx="0.000000" cy="100.000000" r="2" fill="black"/>
  <circle id="outer4" cx="-70.710678" cy="70.710678" r="2" fill="black"/>
  <circle id="outer5" cx="-100.000000" cy="0.000000" r="2" fill="black"/>
  <circle id="outer6" cx="-70.710678" cy="-70.710678" r="2" fill="black"/>
  <circle id="outer7" cx="0.000000" cy="-100.000000" r="2" fill="black"/>
  <circle id="outer8" cx="70.710678" cy="-70.710678" r="2" fill="black"/>
  <circle id="outer_circle" cx="0.000000" cy="0.000000" r="100.000000" fill="none" stroke="black"/>
  <line id="spoke1" x1="0.000000" y1="0.000000" x2="100.000000" y2="0.000000" stroke="black"/>
  <line id="spoke2" x1="0.000000" y1="0.000000" x2="70.710678" y2="70.710678" stroke="black"/>
  <line id="spoke3" x1="0.000000" y1="0.000000" x2="0.000000" y2="100.000000" stroke="black"/>
  <line id="spoke4" x1="0.000000" y1="0.000000" x2="-70.710678" y2="70.710678" stroke="black"/>
  <line id="spoke5" x1="0.000000" y1="0.000000" x2="-100.000000" y2="0.000000" stroke="black"/>
  <line id="spoke6" x1="0.000000" y1="0.000000" x2="-70.710678" y2="-70.710678" stroke="black"/>
  <line id="spoke7" x1="0.000000" y1="0.000000" x2="0.000000" y2="-100.000000" stroke="black"/>
  <line id="spoke8" x1="0.000000" y1="0.000000" x2="70.710678" y2="-70.710678" stroke="black"/>
  <line id="star1" x1="100.000000" y1="0.000000" x2="0.000001" y2="38.000000" stroke="black"/>
  <line id="star2" x1="70.710678" y1="70.710678" x2="-26.870057" y2="26.870058" stroke="black"/>
  <line id="star3" x1="0.000000" y1="100.000000" x2="-38.000000" y2="0.000001" stroke="black"/>
  <line id="star4" x1="-70.710678" y1="70.710678" x2="-26.870058" y2="-26.870057" stroke="black"/>
  <line id="star5" x1="-100.000000" y1="0.000000" x2="0.000001" y2="-38.000000" stroke="black"/>
  <line id="star6" x1="-70.710678" y1="-70.710678" x2="26.870057" y2="-26.870058" stroke="black"/>
  <line id="star7" x1="0.000000" y1="-100.000000" x2="38.000000" y2="0.000001" stroke="black"/>
  <line id="star8" x1="70.710678" y1="-70.710678" x2="26.870058" y2="26.870057" stroke="black"/>
</svg>