<svg xmlns="http://www.w3.org/2000/svg" viewBox="-84.5 -80.0 168.9 160.0" width="800" height="800">
  <circle id="center" cx="0.000000" cy="0.000000" r="2" fill="black"/>
  <line id="blade4_base" x1="-64.472136" y1="-8.944272" x2="-55.527864" y2="8.944272" stroke="black"/>
  <line id="blade1_right_edge" x1="64.472136" y1="8.944272" x2="17.747830" y2="35.210142" stroke="black"/>
  <circle id="blade1_tip" cx="17.747830" cy="35.210142" r="2" fill="black"/>
  <line id="blade3_base" x1="-38.944272" y1="47.487864" x2="-21.055728" y2="56.432136" stroke="black"/>
  <circle id="blade3_right" cx="-21.055728" cy="56.432136" r="2" fill="black"/>
  <circle id="pivot3" cx="-30.000000" cy="51.960000" r="2" fill="black"/>
  <line id="blade4_left_edge" x1="-64.472136" y1="-8.944272" x2="-17.747830" y2="-35.210142" stroke="black"/>
  <circle id="blade4_left" cx="-64.472136" cy="-8.944272" r="2" fill="black"/>
  <line id="radial5" x1="0.000000" y1="0.000000" x2="-30.000000" y2="-51.960000" stroke="black"/>
  <circle id="pivot6" cx="30.000000" cy="-51.960000" r="2" fill="black"/>
  <line id="radial6" x1="0.000000" y1="0.000000" x2="30.000000" y2="-51.960000" stroke="black"/>
  <circle id="blade6_tip" cx="35.823133" cy="2.730869" r="2" fill="black"/>
  <line id="blade6" x1="30.000000" y1="-51.960000" x2="35.823133" y2="2.730869" stroke="black"/>
  <line id="blade1" x1="60.000000" y1="0.000000" x2="17.747830" y2="35.210142" stroke="black"/>
  <circle id="blade3_tip" cx="-35.823133" cy="-2.730869" r="2" fill="black"/>
  <line id="blade3_left_edge" x1="-38.944272" y1="47.487864" x2="-35.823133" y2="-2.730869" stroke="black"/>
  <line id="blade2_base" x1="21.055728" y1="47.487864" x2="38.944272" y2="56.432136" stroke="black"/>
  <line id="blade3" x1="-30.000000" y1="51.960000" x2="-35.823133" y2="-2.730869" stroke="black"/>
  <circle id="blade4_right" cx="-55.527864" cy="8.944272" r="2" fill="black"/>
  <circle id="pivot5" cx="-30.000000" cy="-51.960000" r="2" fill="black"/>
  <circle id="blade5_right" cx="-21.055728" cy="-47.487864" r="2" fill="black"/>
  <circle id="blade4_tip" cx="-17.747830" cy="-35.210142" r="2" fill="black"/>
  <line id="blade5_right_edge" x1="-21.055728" y1="-47.487864" x2="16.588984" y2="-22.728740" stroke="black"/>
  <line id="blade6_base" x1="21.055728" y1="-56.432136" x2="38.944272" y2="-47.487864" stroke="black"/>
  <line id="blade6_left_edge" x1="21.055728" y1="-56.432136" x2="35.823133" y2="2.730869" stroke="black"/>
  <line id="blade4_right_edge" x1="-55.527864" y1="8.944272" x2="-17.747830" y2="-35.210142" stroke="black"/>
  <line id="radial2" x1="0.000000" y1="0.000000" x2="30.000000" y2="51.960000" stroke="black"/>
  <line id="blade2_right_edge" x1="38.944272" y1="56.432136" x2="-16.588984" y2="22.728740" stroke="black"/>
  <circle id="blade3_left" cx="-38.944272" cy="47.487864" r="2" fill="black"/>
  <circle id="pivot1" cx="60.000000" cy="0.000000" r="2" fill="black"/>
  <line id="blade5_left_edge" x1="-38.944272" y1="-56.432136" x2="16.588984" y2="-22.728740" stroke="black"/>
  <circle id="pivot_circle" cx="0.000000" cy="0.000000" r="60.000000" fill="none" stroke="black"/>
  <circle id="blade1_right" cx="64.472136" cy="8.944272" r="2" fill="black"/>
  <line id="radial1" x1="0.000000" y1="0.000000" x2="60.000000" y2="0.000000" stroke="black"/>
  <line id="blade1_left_edge" x1="55.527864" y1="-8.944272" x2="17.747830" y2="35.210142" stroke="black"/>
  <line id="blade6_right_edge" x1="38.944272" y1="-47.487864" x2="35.823133" y2="2.730869" stroke="black"/>
  <circle id="blade5_left" cx="-38.944272" cy="-56.432136" r="2" fill="black"/>
  <line id="blade5" x1="-30.000000" y1="-51.960000" x2="16.588984" y2="-22.728740" stroke="black"/>
  <circle id="blade6_right" cx="38.944272" cy="-47.487864" r="2" fill="black"/>
  <line id="blade2" x1="30.000000" y1="51.960000" x2="-16.588984" y2="22.728740" stroke="black"/>
  <line id="radial3" x1="0.000000" y1="0.000000" x2="-30.000000" y2="51.960000" stroke="black"/>
  <circle id="pivot2" cx="30.000000" cy="51.960000" r="2" fill="black"/>
  <circle id="blade2_tip" cx="-16.588984" cy="22.728740" r="2" fill="black"/>
  <circle id="blade1_left" cx="55.527864" cy="-8.944272" r="2" fill="black"/>
  <line id="blade3_right_edge" x1="-21.055728" y1="56.432136" x2="-35.823133" y2="-2.730869" stroke="black"/>
  <circle id="pivot4" cx="-60.000000" cy="0.000000" r="2" fill="black"/>
  <line id="radial4" x1="0.000000" y1="0.000000" x2="-60.000000" y2="0.000000" stroke="black"/>
  <line id="blade5_base" x1="-38.944272" y1="-56.432136" x2="-21.055728" y2="-47.487864" stroke="black"/>
  <circle id="blade2_right" cx="38.944272" cy="56.432136" r="2" fill="black"/>
  <circle id="blade6_left" cx="21.055728" cy="-56.432136" r="2" fill="black"/>
  <line id="blade2_left_edge" x1="21.055728" y1="47.487864" x2="-16.588984" y2="22.728740" stroke="black"/>
  <line id="blade4" x1="-60.000000" y1="0.000000" x2="-17.747830" y2="-35.210142" stroke="black"/>
  <circle id="blade5_tip" cx="16.588984" cy="-22.728740" r="2" fill="black"/>
  <line id="blade1_base" x1="55.527864" y1="-8.944272" x2="64.472136" y2="8.944272" stroke="black"/>
  <circle id="blade2_left" cx="21.055728" cy="47.487864" r="2" fill="black"/>
</svg>