<svg xmlns="http://www.w3.org/2000/svg" viewBox="-115.4 -120.3 230.7 240.5" width="800" height="800">
  <circle id="blade4_tip" cx="-95.355339" cy="-35.355339" r="2" fill="black"/>
  <circle id="center" cx="0.000000" cy="0.000000" r="2" fill="black"/>
  <line id="radial5" x1="0.000000" y1="0.000000" x2="-30.000000" y2="-51.961524" stroke="black"/>
  <circle id="blade5_tip" cx="-17.059048" cy="-100.257816" r="2" fill="black"/>
  <circle id="pivot_circle" cx="0.000000" cy="0.000000" r="60.000000" fill="none" stroke="black"/>
  <line id="blade5" x1="-30.000000" y1="-51.961524" x2="-17.059048" y2="-100.257816" stroke="black"/>
  <circle id="pivot5" cx="-30.000000" cy="-51.961524" r="2" fill="black"/>
  <line id="blade4" x1="-60.000000" y1="0.000000" x2="-95.355339" y2="-35.355339" stroke="black"/>
  <line id="radial6" x1="0.000000" y1="0.000000" x2="30.000000" y2="-51.961524" stroke="black"/>
  <circle id="blade6_tip" cx="78.296291" cy="-64.902476" r="2" fill="black"/>
  <circle id="pivot6" cx="30.000000" cy="-51.961524" r="2" fill="black"/>
  <line id="radial3" x1="0.000000" y1="0.000000" x2="-30.000000" y2="51.961524" stroke="black"/>
  <line id="blade6" x1="30.000000" y1="-51.961524" x2="78.296291" y2="-64.902476" stroke="black"/>
  <circle id="blade1_tip" cx="95.355339" cy="35.355339" r="2" fill="black"/>
  <circle id="pivot2" cx="30.000000" cy="51.961524" r="2" fill="black"/>
  <circle id="aperture_guide" cx="0.000000" cy="0.000000" r="28.284271" fill="none" stroke="black"/>
  <line id="radial2" x1="0.000000" y1="0.000000" x2="30.000000" y2="51.961524" stroke="black"/>
  <circle id="pivot1" cx="60.000000" cy="0.000000" r="2" fill="black"/>
  <line id="blade2" x1="30.000000" y1="51.961524" x2="17.059048" y2="100.257816" stroke="black"/>
  <line id="radial1" x1="0.000000" y1="0.000000" x2="60.000000" y2="0.000000" stroke="black"/>
  <circle id="blade2_tip" cx="17.059048" cy="100.257816" r="2" fill="black"/>
  <circle id="pivot3" cx="-30.000000" cy="51.961524" r="2" fill="black"/>
  <circle id="blade3_tip" cx="-78.296291" cy="64.902476" r="2" fill="black"/>
  <line id="blade3" x1="-30.000000" y1="51.961524" x2="-78.296291" y2="64.902476" stroke="black"/>
  <line id="blade1" x1="60.000000" y1="0.000000" x2="95.355339" y2="35.355339" stroke="black"/>
  <circle id="pivot4" cx="-60.000000" cy="0.000000" r="2" fill="black"/>
  <line id="radial4" x1="0.000000" y1="0.000000" x2="-60.000000" y2="0.000000" stroke="black"/>
</svg>