<svg xmlns="http://www.w3.org/2000/svg" viewBox="-80.0 -80.0 160.0 160.0" width="800" height="800">
  <circle id="blade2_tip" cx="-10.345888" cy="22.426810" r="2" fill="black"/>
  <circle id="pivot2" cx="30.000000" cy="51.960000" r="2" fill="black"/>
  <line id="blade1" x1="60.000000" y1="0.000000" x2="24.644661" y2="35.355339" stroke="black"/>
  <circle id="blade3_tip" cx="-30.000000" cy="1.960000" r="2" fill="black"/>
  <line id="blade2" x1="30.000000" y1="51.960000" x2="-10.345888" y2="22.426810" stroke="black"/>
  <line id="blade5" x1="-30.000000" y1="-51.960000" x2="10.345888" y2="-22.426810" stroke="black"/>
  <line id="blade4" x1="-60.000000" y1="0.000000" x2="-24.644661" y2="-35.355339" stroke="black"/>
  <line id="blade3" x1="-30.000000" y1="51.960000" x2="-30.000000" y2="1.960000" stroke="black"/>
  <line id="blade6" x1="30.000000" y1="-51.960000" x2="30.000000" y2="-1.960000" stroke="black"/>
  <circle id="aperture_guide" cx="0.000000" cy="0.000000" r="30.000000" fill="none" stroke="black"/>
  <circle id="pivot5" cx="-30.000000" cy="-51.960000" r="2" fill="black"/>
  <circle id="pivot1" cx="60.000000" cy="0.000000" r="2" fill="black"/>
  <circle id="blade4_tip" cx="-24.644661" cy="-35.355339" r="2" fill="black"/>
  <circle id="blade6_tip" cx="30.000000" cy="-1.960000" r="2" fill="black"/>
  <circle id="blade1_tip" cx="24.644661" cy="35.355339" r="2" fill="black"/>
  <circle id="pivot6" cx="30.000000" cy="-51.960000" r="2" fill="black"/>
  <circle id="center" cx="0.000000" cy="0.000000" r="2" fill="black"/>
  <circle id="pivot4" cx="-60.000000" cy="0.000000" r="2" fill="black"/>
  <circle id="pivot_circle" cx="0.000000" cy="0.000000" r="60.000000" fill="none" stroke="black"/>
  <circle id="blade5_tip" cx="10.345888" cy="-22.426810" r="2" fill="black"/>
  <circle id="pivot3" cx="-30.000000" cy="51.960000" r="2" fill="black"/>
</svg>